<?xml version="1.0" encoding="iso-8859-1"?>
<!-- Uploaded to: SVG Repo, www.svgrepo.com, Generator: SVG Repo Mixer Tools -->
<svg height="800px" width="800px" version="1.1" id="Layer_1" xmlns="http://www.w3.org/2000/svg" xmlns:xlink="http://www.w3.org/1999/xlink" 
	 viewBox="0 0 504 504" xml:space="preserve">
<g>
	<path style="fill:#C40E72;" d="M480,197.45c-6.4,0-12-2.4-16.8-7.2c-116.8-116.8-305.6-116.8-422.4,0c-9.6,9.6-24.8,9.6-33.6,0
		c-9.6-9.6-9.6-24.8,0-33.6c135.2-136,354.4-136,489.6-0.8c9.6,9.6,9.6,24.8,0,33.6C492.8,195.05,486.4,197.45,480,197.45z"/>
	<path style="fill:#C40E72;" d="M396,282.25c-6.4,0-12-2.4-16.8-7.2c-70.4-70.4-184-70.4-254.4,0c-9.6,9.6-24.8,9.6-33.6,0
		c-9.6-9.6-9.6-24.8,0-33.6c88.8-89.6,232.8-89.6,321.6-0.8c9.6,9.6,9.6,24.8,0,33.6C408,279.85,402.4,282.25,396,282.25z"/>
	<path style="fill:#C40E72;" d="M309.6,362.25c-6.4,0-12-2.4-16.8-7.2c-22.4-22.4-59.2-22.4-81.6,0c-9.6,9.6-24.8,9.6-33.6,0
		c-9.6-9.6-9.6-24.8,0-33.6c40.8-40.8,108-40.8,148.8,0c9.6,9.6,9.6,24.8,0,33.6C321.6,359.85,316,362.25,309.6,362.25z"/>
</g>
<g>
	<path style="fill:#C40E72;" d="M7.2,183.05c-0.8,0.8-2.4,2.4-3.2,4c0.8,1.6,1.6,2.4,3.2,4c9.6,9.6,24.8,9.6,33.6,0
		c116.8-116.8,305.6-116.8,422.4,0c4.8,4.8,11.2,7.2,16.8,7.2s12-2.4,16.8-7.2c0.8-0.8,2.4-2.4,3.2-4c-0.8-1.6-1.6-2.4-3.2-4
		C361.6,47.85,142.4,47.85,7.2,183.05z"/>
	<path style="fill:#C40E72;" d="M91.2,267.85c-0.8,0.8-2.4,2.4-3.2,4c0.8,1.6,1.6,2.4,3.2,4c9.6,9.6,24.8,9.6,33.6,0
		c70.4-70.4,184-70.4,254.4,0c4.8,4.8,11.2,7.2,16.8,7.2s12-2.4,16.8-7.2c0.8-0.8,2.4-2.4,3.2-4c-0.8-1.6-1.6-2.4-3.2-4
		C324,179.05,180,179.05,91.2,267.85z"/>
	<path style="fill:#C40E72;" d="M177.6,347.85c-0.8,0.8-2.4,2.4-3.2,4c0.8,1.6,1.6,2.4,3.2,4c9.6,9.6,24.8,9.6,33.6,0
		c22.4-22.4,59.2-22.4,81.6,0c4.8,4.8,11.2,7.2,16.8,7.2s12-2.4,16.8-7.2c0.8-0.8,2.4-2.4,3.2-4c-0.8-1.6-1.6-2.4-3.2-4
		C285.6,307.05,218.4,307.05,177.6,347.85z"/>
</g>
<path style="fill:#C40E72;" d="M265.6,420.65l12.8-12.8c1.6-1.6,3.2-4.8,3.2-7.2s-0.8-4.8-3.2-7.2c-4-4-10.4-4-13.6,0l-12.8,12.8
	l-12.8-12.8c-4-4-10.4-4-13.6,0c-4,4-4,10.4,0,13.6l12.8,12.8l-12.8,12.8c-4,4-4,10.4,0,13.6c4,4,10.4,4,13.6,0l12.8-12.8l12.8,12.8
	c1.6,1.6,4.8,3.2,7.2,3.2c2.4,0,4.8-0.8,7.2-3.2c4-4,4-10.4,0-13.6L265.6,420.65z"/>
<path style="fill:#DB0E88;" d="M264.8,393.45l-12.8,12.8l-12.8-12.8c-4-4-10.4-4-13.6,0c-4,4-4,10.4,0,13.6l12.8,12.8l-0.8,0.8
	c4.8,0.8,9.6,0.8,14.4,0.8c4.8,0,9.6,0,14.4-0.8h-0.8l12.8-12.8c1.6-1.6,3.2-4.8,3.2-7.2s-0.8-4.8-3.2-7.2
	C275.2,389.45,268.8,389.45,264.8,393.45z"/>
</svg>